<svg width="184" height="262" viewBox="0 0 184 262" fill="none" xmlns="http://www.w3.org/2000/svg">
<path fill-rule="evenodd" clip-rule="evenodd" d="M90.7605 116.309C97.1065 114.216 104.795 112.316 112.42 111.602C123.879 110.528 134.091 112.22 139.99 118.513C146.141 125.074 148.46 135.442 148.532 146.43C148.601 157.085 146.55 167.613 144.608 174.139C141.937 178.705 137.993 185.715 134.561 192.395C132.801 195.822 131.156 199.199 129.883 202.134C128.656 204.962 127.628 207.706 127.316 209.731C126.735 213.511 124.851 224.795 121.758 235.152C120.205 240.354 118.404 245.121 116.412 248.555C115.416 250.272 114.458 251.504 113.584 252.286C112.778 253.007 112.203 253.208 111.836 253.246C111.725 253.183 111.481 252.99 111.105 252.466C110.354 251.422 109.554 249.669 108.754 247.154C107.167 242.166 105.917 235.318 104.657 228.053C104.548 227.425 104.439 226.794 104.33 226.161L104.329 226.16L104.329 226.16C103.198 219.613 102.037 212.892 100.599 207.519C99.8116 204.578 98.8904 201.839 97.7462 199.671C96.6777 197.646 95.0099 195.334 92.3401 194.549C91.74 194.373 91.1304 194.364 90.5617 194.497C90.3257 194.516 90.0882 194.559 89.8521 194.629C87.1822 195.414 85.5145 197.725 84.446 199.75C83.3018 201.918 82.3806 204.658 81.5931 207.599C80.1548 212.971 78.9937 219.693 77.8628 226.24L77.8626 226.241C77.7534 226.873 77.6444 227.504 77.5354 228.132C76.2752 235.397 75.025 242.246 73.438 247.234C72.6379 249.748 71.838 251.501 71.0876 252.546C70.711 253.07 70.4669 253.262 70.3567 253.326C69.9895 253.287 69.4144 253.086 68.6081 252.365C67.7341 251.584 66.7761 250.352 65.7802 248.635C63.788 245.201 61.9872 240.433 60.4338 235.231C57.3412 224.875 55.4576 213.591 54.876 209.811C54.5645 207.786 53.5358 205.042 52.3091 202.213C51.0365 199.279 49.3915 195.901 47.6309 192.474C44.1995 185.795 40.2556 178.784 37.5841 174.218C35.6422 167.692 33.5912 157.164 33.6606 146.509C33.7323 135.522 36.0514 125.153 42.2021 118.592C47.7766 112.646 57.3727 112.536 68.8493 115.653C77.6805 118.052 86.4875 122.036 93.5022 125.209C95.409 126.072 97.1833 126.875 98.7896 127.569C100.564 128.336 102.624 127.52 103.391 125.746C104.159 123.972 103.342 121.911 101.568 121.144C100.133 120.524 98.4878 119.779 96.676 118.958L96.6759 118.958C94.8568 118.134 92.87 117.234 90.7605 116.309ZM81.2192 112.374C88.7798 109.248 100.255 105.711 111.767 104.632C123.747 103.509 136.875 104.955 145.097 113.725C153.068 122.228 155.456 134.807 155.531 146.384C155.608 158.08 153.331 169.525 151.187 176.567L151.067 176.963L150.858 177.319C148.234 181.79 144.237 188.88 140.788 195.593C139.062 198.953 137.493 202.18 136.305 204.919C135.072 207.763 134.394 209.761 134.235 210.796C133.639 214.665 131.698 226.329 128.466 237.155C126.856 242.544 124.869 247.926 122.467 252.068C121.266 254.139 119.875 256.051 118.25 257.504C116.614 258.967 114.563 260.114 112.131 260.242C109.017 260.406 106.812 258.489 105.42 256.551C104.023 254.607 102.957 252.021 102.084 249.277C100.324 243.747 99.0002 236.4 97.7597 229.249C97.6556 228.649 97.5521 228.05 97.4489 227.453L97.4427 227.418C96.2946 220.776 95.1883 214.376 93.8372 209.33C93.0985 206.571 92.3373 204.419 91.5553 202.938C91.3984 202.64 91.2533 202.394 91.1221 202.19C90.9775 202.408 90.8148 202.68 90.6368 203.017C89.8549 204.499 89.0937 206.65 88.355 209.409C87.0039 214.456 85.8975 220.856 84.7494 227.497C84.6442 228.106 84.5386 228.717 84.4324 229.329C83.1919 236.48 81.8679 243.826 80.1084 249.356C79.2353 252.1 78.1687 254.687 76.7725 256.63C75.3799 258.569 73.1753 260.486 70.0617 260.322C67.6287 260.194 65.5786 259.047 63.942 257.583C62.3176 256.131 60.9266 254.218 59.7252 252.147C57.3227 248.006 55.3357 242.623 53.7264 237.234C50.4937 226.408 48.5527 214.744 47.9574 210.875C47.7983 209.841 47.1206 207.843 45.887 204.998C44.6993 202.26 43.1302 199.032 41.4045 195.673C37.9556 188.959 33.9585 181.869 31.3346 177.399L31.1252 177.042L31.0047 176.646C28.8616 169.605 26.5846 158.159 26.6608 146.464C26.7363 134.886 29.1243 122.307 37.0953 113.805C45.6424 104.688 59.0544 105.739 70.6841 108.898C74.2292 109.861 77.7867 111.07 81.2192 112.374ZM111.904 253.273C111.904 253.276 111.887 253.273 111.853 253.256C111.887 253.261 111.904 253.27 111.904 253.273ZM70.2886 253.353C70.2886 253.356 70.3054 253.353 70.3391 253.335C70.3054 253.341 70.2885 253.35 70.2886 253.353Z" fill="#645F57" fill-opacity="0.5"/>
<path d="M22.032 79.3097L58.9098 61.3498C60.8686 60.3959 61.1991 57.7263 59.6041 56.2422C56.4398 53.2978 52.9546 49.615 52.5771 47.6193C52.1704 45.469 52.1528 35.09 51.9569 23.5925C51.8578 17.7749 56.5995 12.9974 62.4164 13.1319L109.664 14.2494C117.548 14.4359 123.941 20.6953 124.294 28.5735L124.583 35.0179C124.764 38.466 122.76 46.7759 120.043 53.3458C117.326 59.9157 107.991 64.7968 103.663 66.4161L38.2322 99.5375C36.2202 101.471 31.8033 105.878 30.2322 108.038C28.661 110.199 28.9696 113.421 29.3203 114.762L31.0285 152.652L27.0362 153.48C25.2369 153.845 20.8803 154.106 17.8475 152.234C14.8148 150.362 13.72 144.523 13.5517 141.837L8.70185 111.965C7.89793 108.357 6.56819 99.7621 7.68058 94.2528C8.79296 88.7434 17.7117 81.9951 22.032 79.3097Z" fill="white" stroke="#645F57" stroke-width="6"/>
<path d="M159.358 76.4801L117.414 58.0517L109.215 64.0209L90.1518 73.4848L143.228 97.8009C144.115 97.9972 146.45 99.2878 148.702 102.88C150.953 106.472 151.878 110.31 152.059 111.78L151.884 150.1L153.676 150.343C155.31 150.64 159.342 150.974 162.406 149.929C165.469 148.884 166.579 146.083 166.751 144.813L172.982 98.8692C173.487 97.9487 173.757 94.5009 170.795 88.0737C167.832 81.6464 161.935 77.6666 159.358 76.4801Z" fill="white" stroke="#645F57" stroke-width="6"/>
<circle cx="87.8938" cy="36.7373" r="11.9546" transform="rotate(7.72357 87.8938 36.7373)" fill="white" stroke="#645F57" stroke-width="5"/>
<path d="M83.9655 41.1252L92.2481 32.7243" stroke="#645F57" stroke-width="5" stroke-linecap="round"/>
</svg>
