<svg width="243" height="218" viewBox="0 0 243 218" fill="none" xmlns="http://www.w3.org/2000/svg">
<path fill-rule="evenodd" clip-rule="evenodd" d="M88.0288 16.3262C97.0891 13.2728 108.243 10.4558 119.307 9.41891C135.332 7.91693 149.75 10.2662 158.114 19.188C166.801 28.4543 170.043 43.0515 170.143 58.4238C170.24 73.3675 167.36 88.127 164.636 97.2647C160.909 103.634 155.393 113.436 150.597 122.773C148.141 127.554 145.848 132.26 144.076 136.346C142.363 140.296 140.947 144.086 140.52 146.858C139.707 152.14 137.075 167.914 132.749 182.399C130.578 189.671 128.053 196.361 125.25 201.194C123.848 203.611 122.486 205.368 121.225 206.496C119.981 207.608 119.068 207.91 118.448 207.943C118.443 207.941 118.436 207.938 118.426 207.934C118.419 207.931 118.41 207.927 118.399 207.921C118.38 207.911 118.354 207.897 118.322 207.877C118.113 207.747 117.718 207.418 117.192 206.686C116.109 205.178 114.978 202.685 113.857 199.162C111.631 192.168 109.882 182.579 108.124 172.444C107.972 171.567 107.82 170.687 107.667 169.804C106.087 160.659 104.47 151.293 102.466 143.812C101.37 139.716 100.092 135.923 98.515 132.934C97.035 130.13 94.771 127.025 91.2003 125.975C90.4191 125.745 89.6252 125.737 88.8863 125.914C88.5733 125.937 88.2581 125.994 87.9448 126.086C84.3742 127.136 82.1102 130.241 80.6301 133.045C79.0528 136.034 77.7755 139.827 76.6789 143.923C74.6756 151.404 73.0578 160.77 71.4781 169.915C71.3256 170.798 71.1735 171.678 71.0215 172.555C69.2633 182.69 67.5138 192.279 65.2886 199.273C64.1676 202.796 63.0363 205.289 61.9529 206.797C61.4269 207.529 61.0319 207.858 60.8227 207.988C60.7747 208.018 60.7402 208.036 60.7195 208.045C60.7144 208.047 60.7101 208.049 60.7064 208.05C60.7026 208.052 60.6995 208.053 60.6972 208.054C60.0776 208.021 59.164 207.719 57.9202 206.607C56.6587 205.479 55.2974 203.722 53.8956 201.305C51.0918 196.472 48.5674 189.782 46.3957 182.51C42.0705 168.025 39.4377 152.251 38.6251 146.969C38.1985 144.197 36.7817 140.407 35.0689 136.457C33.2969 132.371 31.0046 127.665 28.5486 122.884C23.752 113.547 18.2365 103.745 14.5092 97.3757C11.7852 88.238 8.90497 73.4786 9.00239 58.5348C9.10261 43.1625 12.3441 28.5653 21.0313 19.299C28.9778 10.8227 42.5852 10.7329 58.6157 15.0869C70.978 18.4445 83.3126 24.0249 93.107 28.456C95.7638 29.658 98.2338 30.7754 100.467 31.7409C102.748 32.7274 105.397 31.6778 106.383 29.3967C107.369 27.1155 106.32 24.4667 104.039 23.4802C102.027 22.6102 99.7229 21.5668 97.1884 20.419L97.1875 20.4186C94.3881 19.1508 91.3076 17.7557 88.0288 16.3262ZM75.7902 11.2979C86.3159 6.93 102.37 1.96679 118.467 0.458177C135.162 -1.1066 153.329 0.925158 164.68 13.0325C175.707 24.7954 179.037 42.2347 179.143 58.3651C179.249 74.6472 176.078 90.5866 173.095 100.387L172.94 100.896L172.671 101.355C169.005 107.6 163.421 117.505 158.602 126.886C156.191 131.579 153.996 136.093 152.333 139.927C150.611 143.898 149.646 146.728 149.415 148.227C148.585 153.623 145.879 169.886 141.373 184.974C139.13 192.487 136.366 199.968 133.035 205.71C131.369 208.582 129.451 211.214 127.224 213.205C124.982 215.21 122.2 216.758 118.918 216.931C114.76 217.15 111.792 214.594 109.883 211.937C107.969 209.274 106.495 205.709 105.28 201.89C102.833 194.2 100.989 183.972 99.2561 173.982C99.1102 173.141 98.965 172.301 98.8202 171.463L98.8129 171.421C97.2111 162.154 95.6635 153.202 93.7725 146.139C92.7385 142.277 91.667 139.241 90.5554 137.135C90.1998 136.461 89.8826 135.963 89.614 135.596C89.3286 135.972 88.9827 136.501 88.5898 137.246C87.4782 139.352 86.4066 142.388 85.3726 146.25C83.4816 153.313 81.9341 162.265 80.3323 171.532L80.3323 171.532C80.1851 172.383 80.0375 173.237 79.8891 174.093C78.1562 184.083 76.3118 194.311 73.865 202.001C72.65 205.82 71.1758 209.385 69.2621 212.048C67.3531 214.705 64.3848 217.261 60.2273 217.042C56.945 216.869 54.1631 215.321 51.921 213.316C49.6946 211.325 47.7765 208.693 46.1107 205.821C42.7793 200.079 40.0156 192.598 37.772 185.085C33.2666 169.997 30.56 153.734 29.7297 148.338C29.4991 146.839 28.5337 144.009 26.8119 140.038C25.1491 136.204 22.9543 131.69 20.5432 126.997C15.7241 117.616 10.1403 107.711 6.47446 101.466L6.20518 101.007L6.0503 100.498C3.06756 90.6976 -0.103554 74.7582 0.00259344 58.4761C0.107742 42.3457 3.43782 24.9063 14.4655 13.1435C26.2338 0.59064 44.7473 1.99409 60.9747 6.40152C65.9616 7.75599 70.965 9.46087 75.7902 11.2979Z" fill="#645F57" fill-opacity="0.5"/>
<mask id="path-2-inside-1_33_42" fill="white">
<rect x="161.694" y="118.247" width="23.5596" height="29.4495" rx="2" transform="rotate(-141.543 161.694 118.247)"/>
</mask>
<rect x="161.694" y="118.247" width="23.5596" height="29.4495" rx="2" transform="rotate(-141.543 161.694 118.247)" fill="white" stroke="#645F57" stroke-width="12" mask="url(#path-2-inside-1_33_42)"/>
<line x1="155.804" y1="94.8366" x2="125.944" y2="70.6407" stroke="#645F57" stroke-width="6"/>
<path d="M127.148 74.8798C130.802 69.7991 133.235 64.0797 133.767 58.8344C134.296 53.6213 132.909 48.6885 128.901 45.9654C124.958 43.2866 119.743 43.6228 114.816 45.7247C109.822 47.855 104.917 51.8407 101.012 56.7568" stroke="#645F57" stroke-width="6"/>
<mask id="path-5-inside-2_33_42" fill="white">
<path fill-rule="evenodd" clip-rule="evenodd" d="M223.57 122.262L180.625 88.1546C179.76 87.4677 178.502 87.612 177.815 88.4769L153.745 118.784C153.058 119.648 153.203 120.907 154.068 121.594L216.319 171.034L223.57 122.262Z"/>
</mask>
<path fill-rule="evenodd" clip-rule="evenodd" d="M223.57 122.262L180.625 88.1546C179.76 87.4677 178.502 87.612 177.815 88.4769L153.745 118.784C153.058 119.648 153.203 120.907 154.068 121.594L216.319 171.034L223.57 122.262Z" fill="white"/>
<path d="M223.57 122.262L229.505 123.144L230.014 119.718L227.302 117.563L223.57 122.262ZM177.815 88.4769L173.116 84.7454L177.815 88.4769ZM153.745 118.784L158.444 122.515L153.745 118.784ZM216.319 171.034L212.588 175.732L220.726 182.195L222.254 171.916L216.319 171.034ZM176.893 92.8531L219.839 126.96L227.302 117.563L184.356 83.4561L176.893 92.8531ZM182.513 92.2085C181.139 93.9384 178.623 94.227 176.893 92.8531L184.356 83.4561C180.896 80.7083 175.864 81.2856 173.116 84.7454L182.513 92.2085ZM158.444 122.515L182.513 92.2085L173.116 84.7454L149.047 115.052L158.444 122.515ZM157.799 116.895C159.529 118.269 159.818 120.785 158.444 122.515L149.047 115.052C146.299 118.512 146.876 123.544 150.336 126.292L157.799 116.895ZM220.051 166.335L157.799 116.895L150.336 126.292L212.588 175.732L220.051 166.335ZM222.254 171.916L229.505 123.144L217.635 121.38L210.384 170.151L222.254 171.916Z" fill="#645F57" mask="url(#path-5-inside-2_33_42)"/>
</svg>
