<svg width="218" height="217" viewBox="0 0 218 217" fill="none" xmlns="http://www.w3.org/2000/svg">
<path fill-rule="evenodd" clip-rule="evenodd" d="M87.7139 17.1166C96.724 14.0835 107.807 11.2876 118.8 10.2573C134.753 8.76212 149.098 11.1017 157.418 19.9768C166.062 29.1965 169.289 43.7226 169.388 59.0249C169.485 73.8988 166.619 88.5896 163.908 97.6854C160.197 104.026 154.706 113.785 149.931 123.079C147.486 127.839 145.204 132.525 143.439 136.594C141.734 140.526 140.322 144.301 139.897 147.064C139.088 152.322 136.467 168.025 132.162 182.444C130 189.684 127.487 196.342 124.697 201.152C123.302 203.556 121.948 205.304 120.694 206.425C119.461 207.528 118.557 207.826 117.946 207.86C117.929 207.854 117.89 207.837 117.829 207.798C117.623 207.67 117.232 207.345 116.709 206.617C115.632 205.119 114.507 202.639 113.391 199.132C111.176 192.171 109.435 182.626 107.684 172.535C107.536 171.68 107.387 170.82 107.239 169.959L107.23 169.907C105.657 160.803 104.046 151.478 102.052 144.028C100.96 139.95 99.6875 136.173 98.1162 133.195C96.6421 130.402 94.3848 127.305 90.8219 126.257C90.0413 126.027 89.2482 126.019 88.5098 126.196C88.197 126.219 87.882 126.275 87.5689 126.367C84.006 127.415 81.7487 130.512 80.2746 133.306C78.7032 136.284 77.4312 140.061 76.3392 144.139C74.3447 151.588 72.7339 160.914 71.1612 170.018L71.1611 170.018L71.1592 170.029C71.0081 170.904 70.8573 171.777 70.7066 172.646C68.9561 182.737 67.2146 192.282 64.9998 199.242C63.884 202.749 62.7584 205.229 61.6818 206.728C61.159 207.455 60.7676 207.781 60.5622 207.909C60.5006 207.947 60.4619 207.964 60.4447 207.971C59.8338 207.937 58.9297 207.639 57.6965 206.536C56.4427 205.415 55.0886 203.667 53.6937 201.262C50.9035 196.452 48.3908 189.794 46.2289 182.554C41.9233 168.136 39.3024 152.433 38.4934 147.174C38.0683 144.411 36.6568 140.636 34.9515 136.704C33.1872 132.636 30.9048 127.949 28.4596 123.19C23.6847 113.895 18.1941 104.137 14.4832 97.7958C11.772 88.7001 8.90542 74.0093 9.00239 59.1354C9.10215 43.8331 12.3291 29.307 20.9725 20.0873C28.8752 11.6577 42.4114 11.5649 58.3703 15.8995C70.676 19.2418 82.9538 24.7964 92.7047 29.2078C95.35 30.4046 97.8093 31.5172 100.033 32.4787C102.314 33.4651 104.963 32.4156 105.949 30.1344C106.936 27.8533 105.886 25.2044 103.605 24.218C101.602 23.3519 99.3085 22.3131 96.7852 21.1704C94.0117 19.9144 90.9608 18.5327 87.7139 17.1166ZM75.4738 12.0867C85.9544 7.73832 101.936 2.79837 117.96 1.29656C134.583 -0.261411 152.677 1.76062 163.984 13.8213C174.968 25.5375 178.284 42.9058 178.388 58.9663C178.494 75.1785 175.336 91.0491 172.366 100.808L172.212 101.317L171.942 101.775C168.293 107.993 162.734 117.853 157.937 127.192C155.536 131.864 153.351 136.358 151.696 140.174C149.982 144.127 149.022 146.943 148.793 148.432C147.966 153.805 145.271 169.997 140.786 185.019C138.552 192.499 135.8 199.948 132.482 205.668C130.823 208.528 128.912 211.15 126.693 213.134C124.459 215.132 121.685 216.676 118.412 216.848C114.263 217.067 111.302 214.516 109.4 211.869C107.493 209.214 106.024 205.663 104.815 201.861C102.378 194.203 100.542 184.019 98.8166 174.073C98.6689 173.222 98.5219 172.372 98.3754 171.524L98.3754 171.524C96.7806 162.298 95.2401 153.387 93.3577 146.356C92.3285 142.512 91.2621 139.491 90.1565 137.396C89.8096 136.738 89.4997 136.25 89.2363 135.888C88.9562 136.259 88.6178 136.779 88.2343 137.506C87.1286 139.601 86.0623 142.622 85.033 146.467C83.1507 153.497 81.6102 162.409 80.0154 171.634L80.0154 171.635L80.0144 171.64C79.8682 172.486 79.7216 173.334 79.5742 174.184C77.849 184.129 76.0126 194.314 73.5761 201.971C72.3663 205.774 70.8979 209.325 68.9909 211.979C67.0886 214.627 64.1278 217.177 59.9789 216.959C56.7053 216.786 53.9316 215.243 51.6973 213.245C49.4786 211.261 47.5678 208.638 45.9087 205.778C42.591 200.059 39.839 192.61 37.6052 185.129C33.1194 170.107 30.4246 153.916 29.598 148.543C29.3689 147.053 28.4087 144.238 26.6945 140.285C25.0394 136.468 22.8545 131.975 20.4542 127.302C15.6567 117.964 10.0979 108.103 6.44847 101.886L6.17919 101.427L6.02431 100.918C3.05433 91.1596 -0.103108 75.289 0.00258225 59.0768C0.10728 43.0163 3.42278 25.648 14.4067 13.9318C26.1313 1.42561 44.5735 2.82614 60.7293 7.21413C65.6922 8.56209 70.6716 10.2586 75.4738 12.0867Z" fill="#645F57" fill-opacity="0.5"/>
<path d="M156.89 61.0062L169.294 34.1538L181.699 61.0062C182.191 62.0723 183.043 62.9311 184.105 63.4319L210.76 76L184.105 88.5681C183.043 89.0689 182.191 89.9277 181.699 90.9938L169.294 117.846L156.89 90.9938C156.398 89.9277 155.546 89.0689 154.484 88.5681L127.829 76L154.484 63.4319C155.546 62.9311 156.398 62.0723 156.89 61.0062ZM168.387 119.811C168.387 119.811 168.387 119.81 168.388 119.809L168.387 119.811ZM170.201 32.1907L170.202 32.1886L169.294 31.7692L170.202 32.1886C170.202 32.1893 170.202 32.19 170.201 32.1907Z" fill="white" stroke="#645F57" stroke-width="6"/>
</svg>
