<svg width="170" height="219" viewBox="0 0 170 219" fill="none" xmlns="http://www.w3.org/2000/svg">
<path fill-rule="evenodd" clip-rule="evenodd" d="M84.1517 16.2829C92.591 13.4799 102.868 10.9222 113.061 9.96687C128.194 8.54862 141.722 10.7783 149.548 19.126C157.697 27.8182 160.759 41.5408 160.853 56.0531C160.945 70.1372 158.233 84.0514 155.666 92.6732C152.141 98.698 146.932 107.956 142.402 116.775C140.078 121.297 137.909 125.752 136.23 129.622C134.611 133.355 133.26 136.964 132.851 139.62C132.083 144.611 129.596 159.51 125.512 173.187C123.461 180.056 121.081 186.359 118.444 190.904C117.126 193.176 115.855 194.813 114.688 195.856C113.585 196.842 112.792 197.113 112.276 197.157C112.132 197.085 111.786 196.836 111.239 196.075C110.238 194.681 109.177 192.353 108.12 189.031C106.023 182.438 104.371 173.39 102.708 163.804C102.637 163.394 102.566 162.982 102.495 162.57C102.422 162.15 102.349 161.728 102.276 161.307C100.783 152.664 99.2519 143.798 97.355 136.714C96.3166 132.835 95.1034 129.229 93.5995 126.379C92.1928 123.713 90.0115 120.701 86.5362 119.679C85.7617 119.451 84.9749 119.441 84.2414 119.613C83.9349 119.637 83.6262 119.693 83.3195 119.783C79.8441 120.806 77.6628 123.818 76.2562 126.484C74.7522 129.334 73.5391 132.94 72.5006 136.818C70.6037 143.903 69.0722 152.769 67.5793 161.412C67.4351 162.247 67.2912 163.08 67.1474 163.909C65.4844 173.495 63.8331 182.543 61.7355 189.135C60.6782 192.458 59.618 194.786 58.6165 196.18C58.07 196.941 57.7236 197.19 57.5792 197.262C57.0635 197.218 56.2702 196.947 55.1673 195.961C54.001 194.918 52.7292 193.281 51.4112 191.009C48.7748 186.464 46.3948 180.161 44.3437 173.292C40.2596 159.615 37.7725 144.716 37.0047 139.725C36.5961 137.069 35.2443 133.46 33.6252 129.727C31.9471 125.857 29.7772 121.402 27.4541 116.88C22.9233 108.06 17.7149 98.8029 14.1897 92.7781C11.6227 84.1564 8.91045 70.2421 9.00227 56.158C9.09687 41.6458 12.159 27.9231 20.308 19.2309C27.7162 11.3288 40.4467 11.203 55.5966 15.3178C67.2627 18.4864 78.8988 23.7506 88.1576 27.9393L88.1577 27.9393C90.6727 29.0771 93.0122 30.1355 95.1294 31.051C97.4105 32.0374 100.059 30.9879 101.046 28.7068C102.032 26.4256 100.983 23.7767 98.7016 22.7903C96.8051 21.9702 94.6311 20.9857 92.2382 19.9019L92.238 19.9018C89.7564 18.778 87.0393 17.5474 84.1517 16.2829ZM71.8938 11.2344C81.8636 7.1069 97.0202 2.43088 112.222 1.00614C128.024 -0.474913 145.301 1.43724 156.114 12.9705C166.603 24.1593 169.754 40.7241 169.853 55.9944C169.954 71.4165 166.951 86.5104 164.125 95.7951L163.97 96.304L163.701 96.7628C160.237 102.664 154.96 112.024 150.407 120.888C148.129 125.322 146.056 129.585 144.487 133.203C142.859 136.957 141.959 139.606 141.746 140.988C140.961 146.094 138.4 161.482 134.136 175.762C132.013 182.872 129.393 189.966 126.229 195.42C124.647 198.147 122.819 200.659 120.688 202.565C118.541 204.485 115.86 205.982 112.684 206.149C108.633 206.363 105.757 203.87 103.93 201.327C102.098 198.777 100.695 195.377 99.5438 191.759C97.2246 184.47 95.4783 174.782 93.8407 165.342C93.7015 164.54 93.5631 163.739 93.4251 162.941L93.4221 162.924C91.9071 154.159 90.446 145.707 88.6613 139.041C87.6854 135.397 86.678 132.547 85.6398 130.579C85.3913 130.109 85.1645 129.733 84.9636 129.433C84.7456 129.748 84.4943 130.157 84.2159 130.684C83.1776 132.652 82.1702 135.501 81.1944 139.146C79.4097 145.812 77.9485 154.264 76.4335 163.028L76.4327 163.033C76.294 163.835 76.1549 164.641 76.015 165.447C74.3773 174.887 72.631 184.575 70.3118 191.864C69.1606 195.482 67.7575 198.882 65.9256 201.432C64.0985 203.975 61.2227 206.468 57.1717 206.254C53.996 206.087 51.3149 204.59 49.1681 202.67C47.0369 200.764 45.2084 198.252 43.6262 195.525C40.4624 190.07 37.843 182.977 35.7199 175.867C31.4556 161.587 28.8948 146.199 28.1094 141.093C27.8967 139.711 26.9963 137.062 25.3682 133.308C23.7992 129.69 21.7269 125.427 19.4487 120.993C14.8953 112.129 9.61875 102.769 6.15476 96.8677L5.88549 96.4089L5.73061 95.9C2.90484 86.6154 -0.0980759 71.5214 0.0024566 56.0993C0.102005 40.829 3.25268 24.2642 13.7421 13.0755C24.9722 1.09666 42.6089 2.46424 57.9556 6.63249C62.6464 7.90653 67.3531 9.50822 71.8938 11.2344ZM112.354 197.182C112.354 197.186 112.332 197.183 112.289 197.163C112.332 197.168 112.354 197.178 112.354 197.182ZM57.5019 197.287C57.502 197.291 57.5235 197.288 57.5665 197.268C57.5234 197.273 57.5019 197.283 57.5019 197.287Z" fill="#645F57" fill-opacity="0.5"/>
<mask id="path-2-inside-1_33_41" fill="white">
<rect x="49.7422" y="114.35" width="69.6038" height="29.2336" rx="2"/>
</mask>
<rect x="49.7422" y="114.35" width="69.6038" height="29.2336" rx="2" fill="white" stroke="#645F57" stroke-width="12" mask="url(#path-2-inside-1_33_41)"/>
<mask id="path-3-inside-2_33_41" fill="white">
<path fill-rule="evenodd" clip-rule="evenodd" d="M67.0552 138.016C65.9506 138.016 65.0552 138.911 65.0552 140.016V201.443C65.0552 201.689 65.0993 201.923 65.1801 202.14C66.2592 211.494 74.2057 218.756 83.8483 218.756C93.4912 218.756 101.438 211.494 102.517 202.14C102.597 201.923 102.641 201.688 102.641 201.443V200.024C102.641 200.003 102.641 199.983 102.641 199.963C102.641 199.943 102.641 199.923 102.641 199.903V140.016C102.641 138.911 101.746 138.016 100.641 138.016H67.0552Z"/>
</mask>
<path fill-rule="evenodd" clip-rule="evenodd" d="M67.0552 138.016C65.9506 138.016 65.0552 138.911 65.0552 140.016V201.443C65.0552 201.689 65.0993 201.923 65.1801 202.14C66.2592 211.494 74.2057 218.756 83.8483 218.756C93.4912 218.756 101.438 211.494 102.517 202.14C102.597 201.923 102.641 201.688 102.641 201.443V200.024C102.641 200.003 102.641 199.983 102.641 199.963C102.641 199.943 102.641 199.923 102.641 199.903V140.016C102.641 138.911 101.746 138.016 100.641 138.016H67.0552Z" fill="white"/>
<path d="M65.1801 202.14L71.1405 201.453L71.0572 200.73L70.8036 200.049L65.1801 202.14ZM102.517 202.14L96.8923 200.05L96.6394 200.731L96.5562 201.452L102.517 202.14ZM102.641 200.024L96.6413 200.004L96.6413 200.014V200.024H102.641ZM102.641 199.903H96.6413V199.912L96.6413 199.922L102.641 199.903ZM71.0552 140.016C71.0552 142.225 69.2643 144.016 67.0552 144.016V132.016C62.6369 132.016 59.0552 135.597 59.0552 140.016H71.0552ZM71.0552 201.443V140.016H59.0552V201.443H71.0552ZM70.8036 200.049C70.9681 200.491 71.0552 200.964 71.0552 201.443H59.0552C59.0552 202.413 59.2305 203.356 59.5565 204.232L70.8036 200.049ZM83.8483 212.756C77.2884 212.756 71.8744 207.814 71.1405 201.453L59.2196 202.828C60.644 215.174 71.1229 224.756 83.8483 224.756V212.756ZM96.5562 201.452C95.8225 207.813 90.4084 212.756 83.8483 212.756V224.756C96.5741 224.756 107.053 215.174 108.477 202.827L96.5562 201.452ZM96.6413 201.443C96.6413 200.964 96.7281 200.492 96.8923 200.05L108.141 204.229C108.466 203.354 108.641 202.412 108.641 201.443H96.6413ZM96.6413 200.024V201.443H108.641V200.024H96.6413ZM96.6413 199.963C96.6413 199.977 96.6413 199.991 96.6413 200.004L108.641 200.043C108.641 200.016 108.641 199.989 108.641 199.963H96.6413ZM96.6413 199.922C96.6413 199.935 96.6413 199.949 96.6413 199.963H108.641C108.641 199.937 108.641 199.91 108.641 199.883L96.6413 199.922ZM96.6413 140.016V199.903H108.641V140.016H96.6413ZM100.641 144.016C98.4321 144.016 96.6413 142.225 96.6413 140.016H108.641C108.641 135.597 105.06 132.016 100.641 132.016V144.016ZM67.0552 144.016H100.641V132.016H67.0552V144.016Z" fill="#645F57" mask="url(#path-3-inside-2_33_41)"/>
<line x1="60.7394" y1="175.806" x2="105.286" y2="149.357" stroke="#645F57" stroke-width="6"/>
<line x1="60.7394" y1="202.256" x2="105.286" y2="175.806" stroke="#645F57" stroke-width="6"/>
</svg>
