<svg width="204" height="220" viewBox="0 0 204 220" fill="none" xmlns="http://www.w3.org/2000/svg">
<path fill-rule="evenodd" clip-rule="evenodd" d="M101.282 16.5681C110.448 13.472 121.751 10.6105 132.964 9.5596C149.142 8.04334 163.711 10.4131 172.167 19.4327C180.946 28.797 184.218 43.5433 184.319 59.0623C184.417 74.1527 181.508 89.0563 178.758 98.282C174.996 104.71 169.428 114.605 164.586 124.03C162.108 128.855 159.794 133.605 158.006 137.727C156.278 141.714 154.85 145.534 154.42 148.327C153.6 153.659 150.942 169.582 146.576 184.204C144.383 191.545 141.834 198.301 139.002 203.184C137.586 205.625 136.209 207.403 134.932 208.545C133.67 209.674 132.738 209.983 132.1 210.016L132.095 210.016C132.084 210.013 132.037 209.997 131.952 209.944C131.735 209.808 131.333 209.472 130.799 208.73C129.702 207.203 128.559 204.681 127.427 201.124C125.18 194.062 123.414 184.381 121.639 174.151C121.57 173.751 121.5 173.35 121.431 172.948C121.347 172.462 121.263 171.975 121.178 171.488C119.584 162.257 117.951 152.806 115.93 145.256C114.823 141.123 113.535 137.299 111.945 134.287C110.453 131.458 108.175 128.338 104.588 127.283C103.805 127.053 103.01 127.045 102.271 127.223C101.956 127.246 101.64 127.302 101.325 127.395C97.7382 128.45 95.4601 131.57 93.9675 134.399C92.3776 137.411 91.0894 141.235 89.9828 145.368C87.9615 152.918 86.3289 162.369 84.7343 171.6C84.5805 172.49 84.427 173.379 84.2736 174.263C82.4991 184.493 80.7329 194.174 78.486 201.236C77.3541 204.793 76.2106 207.315 75.1133 208.842C74.5803 209.584 74.1779 209.92 73.9608 210.056C73.8756 210.109 73.8288 210.125 73.8177 210.128L73.8128 210.128C73.175 210.095 72.2432 209.786 70.9811 208.657C69.7033 207.515 68.3267 205.737 66.9107 203.296C64.0783 198.413 61.5293 191.658 59.337 184.316C54.9707 169.694 52.313 153.771 51.4928 148.439C51.0632 145.647 49.6353 141.826 47.9064 137.84C46.1185 133.717 43.8052 128.967 41.3266 124.142C36.4847 114.717 30.9167 104.822 27.155 98.394C24.4043 89.1683 21.4954 74.2647 21.5937 59.1743C21.6949 43.6553 24.967 28.909 33.746 19.5447C41.7843 10.9706 55.5412 10.8868 71.7219 15.2816C84.203 18.6715 96.6567 24.3058 106.543 28.7782L106.543 28.7783L106.543 28.7786C109.224 29.9914 111.716 31.1187 113.968 32.0927C116.249 33.0792 118.898 32.0296 119.885 29.7485C120.871 27.4674 119.822 24.8185 117.54 23.832C115.509 22.9534 113.182 21.8999 110.624 20.7412L110.623 20.7408C107.77 19.4486 104.627 18.0255 101.282 16.5681ZM89.0463 11.543C99.6669 7.13407 115.875 2.1218 132.124 0.598866C148.972 -0.980188 167.29 1.07197 178.733 13.2773C189.852 25.138 193.213 42.7266 193.319 59.0036C193.426 75.4324 190.226 91.516 187.217 101.404L187.062 101.913L186.792 102.372C183.092 108.676 177.456 118.674 172.592 128.143C170.158 132.88 167.942 137.437 166.263 141.308C164.526 145.316 163.549 148.176 163.315 149.695C162.477 155.142 159.746 171.553 155.199 186.779C152.935 194.361 150.147 201.908 146.787 207.7C145.107 210.596 143.174 213.249 140.931 215.254C138.673 217.273 135.873 218.83 132.573 219.004C128.397 219.224 125.413 216.658 123.49 213.981C121.563 211.298 120.076 207.705 118.85 203.852C116.382 196.094 114.521 185.773 112.772 175.69C112.622 174.826 112.473 173.964 112.324 173.104C110.708 163.752 109.145 154.714 107.236 147.584C106.192 143.685 105.11 140.617 103.986 138.487C103.611 137.778 103.279 137.26 102.999 136.884C102.702 137.267 102.34 137.816 101.927 138.599C100.803 140.729 99.7205 143.797 98.6766 147.696C96.7675 154.827 95.2052 163.864 93.5886 173.216C93.44 174.076 93.291 174.938 93.1412 175.802C91.392 185.885 89.5308 196.206 87.0623 203.965C85.8364 207.817 84.3501 211.41 82.4225 214.093C80.4996 216.77 77.5155 219.336 73.3398 219.116C70.0394 218.942 67.2402 217.386 64.9819 215.366C62.7392 213.361 60.8059 210.708 59.1257 207.812C55.7658 202.02 52.9775 194.473 50.7133 186.891C46.1668 171.666 43.4353 155.254 42.5974 149.807C42.3637 148.288 41.3872 145.428 39.6494 141.42C37.9707 137.549 35.755 132.992 33.3212 128.255C28.4567 118.786 22.8205 108.788 19.1203 102.484L18.851 102.025L18.6961 101.516C15.6866 91.628 12.4868 75.5444 12.5939 59.1156C12.7 42.8386 16.0607 25.25 27.1802 13.3893C39.0403 0.738465 57.7034 2.14803 74.0809 6.59626C79.1184 7.96447 84.1725 9.68701 89.0463 11.543Z" fill="#645F57" fill-opacity="0.5"/>
<line x1="3" y1="76.6895" x2="200.607" y2="76.6895" stroke="#645F57" stroke-width="6" stroke-linecap="round"/>
<mask id="path-3-inside-1_33_15" fill="white">
<rect x="83.2266" y="49.9658" width="40.127" height="53.5027" rx="4"/>
</mask>
<rect x="83.2266" y="49.9658" width="40.127" height="53.5027" rx="4" fill="white" stroke="#645F57" stroke-width="12" mask="url(#path-3-inside-1_33_15)"/>
</svg>
