<svg width="205" height="218" viewBox="0 0 205 218" fill="none" xmlns="http://www.w3.org/2000/svg">
<path fill-rule="evenodd" clip-rule="evenodd" d="M88.2759 16.4765C97.3756 13.4071 108.585 10.5735 119.705 9.5314C135.787 8.02409 150.261 10.381 158.66 19.3393C167.381 28.6422 170.634 43.2951 170.735 58.7221C170.832 73.7206 167.941 88.5339 165.207 97.7044C161.467 104.095 155.932 113.932 151.119 123.302C148.654 128.099 146.354 132.822 144.576 136.922C142.857 140.885 141.436 144.686 141.009 147.466C140.193 152.767 137.551 168.597 133.211 183.132C131.031 190.431 128.498 197.145 125.683 201.997C124.276 204.422 122.909 206.187 121.641 207.321C120.39 208.44 119.469 208.744 118.842 208.777L118.836 208.775C118.831 208.773 118.824 208.77 118.816 208.766C118.794 208.757 118.759 208.739 118.71 208.709C118.498 208.576 118.1 208.245 117.572 207.509C116.483 205.994 115.347 203.49 114.222 199.954C111.989 192.935 110.233 183.312 108.469 173.141C108.317 172.265 108.165 171.386 108.013 170.504L108.011 170.493C106.425 161.316 104.802 151.918 102.792 144.411C101.692 140.301 100.41 136.497 98.8284 133.499C97.3436 130.685 95.0744 127.575 91.4976 126.523C90.716 126.293 89.9218 126.285 89.1826 126.462C88.869 126.486 88.5532 126.542 88.2393 126.634C84.6626 127.686 82.3933 130.797 80.9086 133.61C79.3266 136.608 78.0452 140.412 76.9448 144.522C74.9349 152.029 73.3115 161.427 71.7263 170.604L71.7207 170.636C71.5696 171.511 71.4189 172.383 71.2681 173.252C69.5038 183.423 67.7481 193.046 65.5148 200.065C64.3897 203.601 63.2539 206.105 62.1653 207.62C61.6367 208.356 61.2389 208.688 61.0268 208.82C60.978 208.85 60.9428 208.868 60.9212 208.878C60.9087 208.883 60.8999 208.887 60.8947 208.888C60.2683 208.855 59.3474 208.552 58.0955 207.432C56.8279 206.299 55.4609 204.534 54.0538 202.108C51.2393 197.256 48.7057 190.542 46.5264 183.244C42.1858 168.708 39.5437 152.878 38.7282 147.578C38.3005 144.798 36.8796 140.997 35.1608 137.033C33.3829 132.934 31.0827 128.211 28.6183 123.414C23.8048 114.044 18.2697 104.207 14.5295 97.8158C11.7956 88.6452 8.90463 73.8319 9.00241 58.8334C9.10297 43.4064 12.3559 28.7535 21.0774 19.4507C29.0581 10.9379 42.7213 10.8503 58.8079 15.2195C71.2145 18.5892 83.5936 24.1897 93.4221 28.6362C96.088 29.8423 98.5662 30.9635 100.806 31.9322C103.088 32.9187 105.736 31.8691 106.723 29.588C107.709 27.3068 106.66 24.6579 104.379 23.6715C102.359 22.7982 100.046 21.7509 97.5026 20.5988C94.6831 19.322 91.5795 17.9164 88.2759 16.4765ZM76.0384 11.4494C86.5996 7.06618 102.711 2.08463 118.865 0.570666C135.617 -0.999438 153.841 1.03993 165.225 13.1839C176.287 24.9832 179.629 42.4783 179.734 58.6634C179.841 75.0003 176.659 90.9935 173.666 100.827L173.511 101.336L173.242 101.794C169.563 108.062 163.96 118.001 159.124 127.415C156.704 132.125 154.502 136.655 152.833 140.503C151.105 144.487 150.136 147.328 149.904 148.835C149.071 154.25 146.355 170.568 141.834 185.708C139.583 193.247 136.81 200.752 133.468 206.513C131.797 209.394 129.873 212.034 127.641 214.03C125.393 216.04 122.604 217.591 119.315 217.764C115.151 217.984 112.177 215.424 110.262 212.76C108.344 210.089 106.865 206.514 105.646 202.683C103.191 194.967 101.34 184.704 99.6012 174.679C99.4548 173.835 99.3091 172.992 99.1639 172.152L99.1565 172.109L99.1564 172.109C97.5491 162.811 95.9961 153.826 94.0983 146.738C93.0606 142.863 91.985 139.815 90.8687 137.699C90.5061 137.012 90.1831 136.507 89.9103 136.137C89.6208 136.515 89.2686 137.052 88.8683 137.811C87.752 139.926 86.6763 142.974 85.6386 146.85C83.7409 153.938 82.1879 162.922 80.5805 172.22L80.5805 172.221C80.4328 173.075 80.2846 173.932 80.1357 174.791C78.3967 184.815 76.5461 195.079 74.0911 202.794C72.8721 206.625 71.3933 210.201 69.4745 212.872C67.5603 215.536 64.5861 218.095 60.4218 217.876C57.1328 217.703 54.3444 216.152 52.0963 214.141C49.8638 212.145 47.94 209.505 46.2688 206.624C42.9268 200.863 40.1539 193.358 37.9026 185.819C33.3819 170.68 30.666 154.361 29.8329 148.946C29.6011 147.44 28.6316 144.598 26.9038 140.614C25.235 136.766 23.0324 132.236 20.6129 127.526C15.7768 118.113 10.1735 108.173 6.49481 101.906L6.22553 101.447L6.07065 100.938C3.07792 91.1048 -0.103897 75.1116 0.00260184 58.7748C0.108109 42.5897 3.44961 25.0946 14.5115 13.2952C26.3141 0.705785 44.8835 2.11152 61.1669 6.53417C66.1727 7.89378 71.1951 9.60527 76.0384 11.4494Z" fill="#645F57" fill-opacity="0.5"/>
<path d="M155.953 107.304C176.354 107.304 192.893 90.7655 192.893 70.3642C192.893 49.9629 176.354 33.4244 155.953 33.4244C135.552 33.4244 119.013 49.9629 119.013 70.3642C119.013 90.7655 135.552 107.304 155.953 107.304Z" fill="white" stroke="#645F57" stroke-width="6" stroke-linecap="round" stroke-linejoin="round"/>
<path d="M201.758 116.17L183.288 96.2221L201.758 116.17Z" fill="white"/>
<path d="M201.758 116.17L183.288 96.2221" stroke="#645F57" stroke-width="6" stroke-linecap="round" stroke-linejoin="round"/>
<path d="M172.042 69.7942L139.536 69.8672L172.042 69.7942Z" fill="white"/>
<path d="M172.042 69.7942L139.536 69.8671" stroke="#645F57" stroke-width="6" stroke-linecap="round" stroke-linejoin="round"/>
<path d="M155.752 53.5781L155.825 86.0833L155.752 53.5781Z" fill="white"/>
<path d="M155.752 53.5781L155.825 86.0833" stroke="#645F57" stroke-width="6" stroke-linecap="round" stroke-linejoin="round"/>
</svg>
