<svg width="252" height="178" viewBox="0 0 252 178" fill="none" xmlns="http://www.w3.org/2000/svg">
<path fill-rule="evenodd" clip-rule="evenodd" d="M71.583 13.1941C79.1242 10.6185 88.5048 8.21727 97.8106 7.34509C110.992 6.10965 122.92 8.03295 129.858 15.4332C137.047 23.1014 139.712 35.1572 139.795 47.8041C139.875 60.1176 137.5 72.276 135.255 79.7975C132.194 85.0276 127.657 93.0894 123.713 100.767C121.696 104.693 119.815 108.556 118.362 111.907C116.954 115.153 115.8 118.246 115.454 120.496C114.786 124.838 112.621 137.809 109.063 149.723C107.277 155.704 105.198 161.218 102.883 165.209C101.725 167.204 100.594 168.668 99.5367 169.613C98.4912 170.548 97.6988 170.822 97.1313 170.852L97.128 170.852C97.1113 170.854 97.0617 170.859 96.9159 170.768C96.7157 170.644 96.3736 170.352 95.9315 169.737C95.0232 168.473 94.0862 166.401 93.163 163.5C91.3299 157.738 89.8904 149.846 88.4463 141.521C88.3215 140.801 88.1966 140.079 88.0715 139.354C86.7731 131.838 85.4453 124.152 83.8019 118.014C82.9022 114.653 81.8573 111.554 80.5715 109.118C79.3614 106.824 77.5341 104.336 74.6804 103.497C74.0676 103.316 73.4449 103.312 72.866 103.453C72.6169 103.47 72.3659 103.514 72.1165 103.588C69.2627 104.427 67.4354 106.916 66.2253 109.209C64.9395 111.645 63.8946 114.745 62.9949 118.105C61.3515 124.243 60.0238 131.929 58.7254 139.445L58.7254 139.445C58.6002 140.17 58.4753 140.893 58.3505 141.612C56.9064 149.937 55.4669 157.829 53.6338 163.591C52.7107 166.492 51.7736 168.564 50.8653 169.828C50.4233 170.444 50.0811 170.735 49.8809 170.86C49.7351 170.951 49.6855 170.945 49.6688 170.944L49.6655 170.943C49.098 170.913 48.3056 170.639 47.2601 169.704C46.2025 168.759 45.0717 167.295 43.9142 165.3C41.5989 161.309 39.5196 155.795 37.7337 149.814C34.176 137.9 32.0112 124.929 31.3431 120.587C30.997 118.337 29.8428 115.244 28.4353 111.999C26.9818 108.647 25.1004 104.784 23.0835 100.858C19.1394 93.1805 14.6028 85.1187 11.5416 79.8886C9.29687 72.3671 6.92171 60.2086 7.00197 47.8952C7.08442 35.2483 9.74969 23.1925 16.9387 15.5243C23.5515 8.47055 34.8393 8.42946 48.0148 12.008C58.1891 14.7714 68.3437 19.3656 76.3918 23.0067C78.5721 23.9931 80.5978 24.9096 82.4274 25.7008C84.2016 26.468 86.2618 25.6517 87.029 23.8775C87.7963 22.1033 86.9799 20.043 85.2057 19.2758C83.5478 18.5588 81.6509 17.6998 79.5655 16.7554C77.1343 15.6544 74.4468 14.4374 71.583 13.1941ZM62.0778 9.29774C70.7108 5.70748 83.9191 1.61638 97.1574 0.375633C110.86 -0.908655 125.704 0.767659 134.965 10.6456C143.974 20.2555 146.708 34.5219 146.795 47.7585C146.882 61.1131 144.28 74.1894 141.834 82.2262L141.714 82.622L141.504 82.9789C138.491 88.1126 133.901 96.254 129.94 103.966C127.958 107.824 126.152 111.537 124.784 114.693C123.369 117.954 122.566 120.301 122.372 121.56C121.691 125.992 119.468 139.343 115.77 151.726C113.929 157.894 111.663 164.023 108.938 168.721C107.575 171.071 106.011 173.214 104.203 174.831C102.382 176.459 100.138 177.704 97.4992 177.842C94.1801 178.017 91.7971 175.98 90.2466 173.822C88.6925 171.658 87.4888 168.753 86.4926 165.622C84.4871 159.319 82.9737 150.929 81.5493 142.718C81.4273 142.014 81.3059 141.312 81.1849 140.612L81.1848 140.611C79.8692 133 78.5962 125.636 77.0401 119.824C76.1891 116.646 75.3042 114.135 74.3806 112.385C74.0353 111.73 73.716 111.243 73.4356 110.892C73.1377 111.249 72.7924 111.763 72.4162 112.476C71.4926 114.226 70.6077 116.737 69.7568 119.915C68.2006 125.727 66.9276 133.092 65.612 140.703L65.612 140.703C65.4909 141.403 65.3695 142.105 65.2475 142.809C63.8231 151.02 62.3098 159.41 60.3043 165.713C59.3081 168.844 58.1043 171.75 56.5502 173.913C54.9997 176.071 52.6168 178.108 49.2976 177.934C46.6592 177.795 44.4144 176.55 42.5941 174.922C40.7859 173.306 39.2222 171.162 37.8593 168.813C35.1337 164.114 32.8682 157.985 31.0264 151.817C27.3285 139.434 25.1063 126.083 24.4245 121.651C24.2307 120.392 23.4276 118.045 22.0131 114.784C20.6446 111.628 18.8391 107.915 16.8571 104.057C12.8955 96.3451 8.30575 88.2037 5.29246 83.07L5.08302 82.7131L4.96255 82.3173C2.51657 74.2805 -0.0849325 61.2042 0.00212654 47.8496C0.088415 34.613 2.82256 20.3466 11.8319 10.7367C21.4173 0.51224 36.521 1.63261 49.8496 5.25272C53.9663 6.37084 58.0963 7.77985 62.0778 9.29774Z" fill="#645F57" fill-opacity="0.5"/>
<path fill-rule="evenodd" clip-rule="evenodd" d="M176.768 13.1941C184.309 10.6185 193.69 8.21727 202.996 7.34509C216.177 6.10965 228.106 8.03295 235.043 15.4332C242.232 23.1014 244.897 35.1572 244.98 47.8041C245.06 60.1176 242.685 72.276 240.44 79.7975C237.379 85.0276 232.842 93.0894 228.898 100.767C226.881 104.693 225 108.556 223.547 111.907C222.139 115.153 220.985 118.246 220.639 120.496C219.971 124.838 217.806 137.809 214.248 149.723C212.462 155.704 210.383 161.218 208.068 165.209C206.91 167.204 205.779 168.668 204.722 169.613C203.676 170.548 202.884 170.822 202.316 170.852L202.313 170.852C202.296 170.854 202.247 170.859 202.101 170.768C201.901 170.644 201.559 170.352 201.117 169.737C200.208 168.473 199.271 166.401 198.348 163.5C196.515 157.738 195.075 149.846 193.631 141.521C193.507 140.801 193.382 140.079 193.257 139.354L193.256 139.354C191.958 131.838 190.63 124.152 188.987 118.014C188.087 114.653 187.042 111.554 185.757 109.118C184.546 106.824 182.719 104.336 179.865 103.497C179.253 103.316 178.63 103.312 178.051 103.453C177.802 103.47 177.551 103.514 177.302 103.588C174.448 104.427 172.62 106.916 171.41 109.209C170.125 111.645 169.08 114.745 168.18 118.105C166.537 124.243 165.209 131.929 163.91 139.445L163.91 139.445L163.905 139.474C163.782 140.189 163.659 140.902 163.536 141.612C162.091 149.937 160.652 157.829 158.819 163.591C157.896 166.492 156.959 168.564 156.05 169.828C155.608 170.444 155.266 170.735 155.066 170.86C154.92 170.951 154.871 170.945 154.854 170.944L154.851 170.943C154.283 170.913 153.491 170.639 152.445 169.704C151.388 168.759 150.257 167.295 149.099 165.3C146.784 161.309 144.705 155.795 142.919 149.814C139.361 137.9 137.196 124.929 136.528 120.587C136.182 118.337 135.028 115.244 133.62 111.999C132.167 108.647 130.285 104.784 128.269 100.858C124.324 93.1805 119.788 85.1187 116.727 79.8886C114.482 72.3671 112.107 60.2086 112.187 47.8952C112.269 35.2483 114.935 23.1925 122.124 15.5243C128.737 8.47055 140.024 8.42946 153.2 12.008C163.374 14.7714 173.529 19.3656 181.577 23.0067C183.757 23.9931 185.783 24.9096 187.612 25.7008C189.387 26.468 191.447 25.6517 192.214 23.8775C192.981 22.1033 192.165 20.043 190.391 19.2758C188.733 18.5588 186.836 17.6998 184.751 16.7554C182.319 15.6544 179.632 14.4374 176.768 13.1941ZM167.263 9.29774C175.896 5.70748 189.104 1.61638 202.342 0.375633C216.045 -0.908655 230.889 0.767659 240.15 10.6456C249.159 20.2555 251.893 34.5219 251.98 47.7585C252.067 61.1131 249.465 74.1894 247.019 82.2262L246.899 82.622L246.689 82.9789C243.676 88.1126 239.086 96.254 235.125 103.966C233.143 107.824 231.337 111.537 229.969 114.693C228.554 117.954 227.751 120.301 227.557 121.56C226.876 125.992 224.653 139.343 220.956 151.726C219.114 157.894 216.848 164.023 214.123 168.721C212.76 171.071 211.196 173.214 209.388 174.831C207.568 176.459 205.323 177.704 202.684 177.842C199.365 178.017 196.982 175.98 195.432 173.822C193.878 171.658 192.674 168.753 191.678 165.622C189.672 159.319 188.159 150.929 186.734 142.718C186.612 142.014 186.491 141.312 186.37 140.612C185.054 133.001 183.781 125.636 182.225 119.824C181.374 116.646 180.489 114.135 179.566 112.385C179.22 111.73 178.901 111.243 178.621 110.892C178.323 111.249 177.977 111.763 177.601 112.476C176.678 114.226 175.793 116.737 174.942 119.915C173.386 125.727 172.113 133.092 170.797 140.703L170.795 140.716C170.674 141.412 170.554 142.11 170.433 142.809C169.008 151.02 167.495 159.41 165.489 165.713C164.493 168.844 163.289 171.75 161.735 173.913C160.185 176.071 157.802 178.108 154.483 177.934C151.844 177.795 149.599 176.55 147.779 174.922C145.971 173.306 144.407 171.162 143.044 168.813C140.319 164.114 138.053 157.985 136.211 151.817C132.514 139.434 130.291 126.083 129.61 121.651C129.416 120.392 128.613 118.045 127.198 114.784C125.83 111.628 124.024 107.915 122.042 104.057C118.081 96.3451 113.491 88.2037 110.478 83.07L110.268 82.7131L110.148 82.3173C107.702 74.2805 105.1 61.2042 105.187 47.8496C105.273 34.613 108.008 20.3466 117.017 10.7367C126.602 0.51224 141.706 1.63261 155.035 5.25272C159.151 6.37084 163.281 7.77985 167.263 9.29774Z" fill="#645F57"/>
</svg>
